<svg xmlns="http://www.w3.org/2000/svg" width="20" height="20" fill="none" viewBox="0 0 20 20"><g id="Frame 3"><g id="Group 3547"><path id="Rectangle 6281" fill="#9027FF" fill-opacity=".5" d="M17.7399 2.67893C17.8654 2.35152 17.6236 2.00006 17.273 2.00006H14.9358C14.5216 2.00006 14.1504 2.25533 14.0021 2.64202L8.39361 17.2677C8.26805 17.5951 8.50979 17.9467 8.86047 17.9467H11.5471C11.7543 17.9467 11.9399 17.819 12.014 17.6256L17.7399 2.67893Z"/><path id="Rectangle 6282" fill="#9027FF" fill-opacity=".5" d="M11.885 6.68234H8.13326L2.81812 16.5249C2.45832 17.1911 2.94081 18 3.69802 18H5.48091C5.66471 18 5.83369 17.8992 5.92096 17.7374L11.885 6.68234Z"/><rect id="Rectangle 6283" width="3.762" height="7.696" x="2" y="10.304" fill="#9027FF" rx=".5"/><rect id="Rectangle 6284" width="3.758" height="11.963" x="8.121" y="5.988" fill="#9027FF" rx=".5"/><rect id="Rectangle 6285" width="3.758" height="15.951" x="14.242" y="2" fill="#9027FF" rx=".5"/></g></g></svg>