<svg xmlns="http://www.w3.org/2000/svg" width="65" height="64" fill="none" viewBox="0 0 65 64"><path fill="url(#paint0_linear_325_26279)" d="M32.5 64C46.5222 64 54.3174 64 59.4087 58.9087C64.5 53.8174 64.5 46.0222 64.5 32C64.5 17.9778 64.5 10.1826 59.4087 5.09131C54.3174 -9.84438e-07 46.5222 0 32.5 0C18.4778 0 10.6826 -9.84438e-07 5.59131 5.09131C0.499999 10.1826 0.5 17.9778 0.5 32C0.5 46.0222 0.499999 53.8174 5.59131 58.9087C10.6826 64 18.4778 64 32.5 64Z"/><g clip-path="url(#clip0_325_26279)" filter="url(#filter0_d_325_26279)"><path fill="#313131" d="M14.4645 28.1149V33.144L34.6265 33.1839L35.8161 28.1548L14.4645 28.1149Z"/><path fill="#313131" d="M14.4645 18.0364V23.0655L37.0056 23.1054L37.2072 22.2273C37.7113 20.1119 36.0983 18.0763 33.9007 18.0763L14.4645 18.0364Z"/><path fill="#313131" d="M33.4166 38.2127L34.6061 33.1836L47.3687 33.2036L45.4936 38.2327L33.4166 38.2127Z"/><path fill="#313131" d="M35.7951 28.1548L37.0048 23.1257L55.191 23.0658L53.0538 28.075L35.7951 28.1548Z"/><path fill="#313131" d="M14.4645 38.1731V43.2022L32.2272 43.2421L33.4168 38.213L14.4645 38.1731Z"/><path fill="#313131" d="M39.8076 48.2909H36.118C33.4566 48.2909 31.521 45.7763 32.2065 43.2418H41.844L39.8076 48.2909Z"/></g><g clip-path="url(#clip1_325_26279)" filter="url(#filter1_d_325_26279)"><path fill="#fff" d="M14.4645 28.1149V33.144L34.6265 33.1839L35.8161 28.1548L14.4645 28.1149Z"/><path fill="#fff" d="M14.4645 18.0364V23.0655L37.0056 23.1054L37.2072 22.2273C37.7113 20.1119 36.0983 18.0763 33.9007 18.0763L14.4645 18.0364Z"/><path fill="#fff" d="M33.4166 38.2127L34.6061 33.1836L47.3687 33.2036L45.4936 38.2327L33.4166 38.2127Z"/><path fill="#fff" d="M35.7951 28.1548L37.0048 23.1257L55.191 23.0658L53.0538 28.075L35.7951 28.1548Z"/><path fill="#fff" d="M14.4645 38.1731V43.2022L32.2272 43.2421L33.4168 38.213L14.4645 38.1731Z"/><path fill="#fff" d="M39.8076 48.2909H36.118C33.4566 48.2909 31.521 45.7763 32.2065 43.2418H41.844L39.8076 48.2909Z"/></g><defs><filter id="filter0_d_325_26279" width="47.036" height="36.563" x="11.309" y="17.405" color-interpolation-filters="sRGB" filterUnits="userSpaceOnUse"><feFlood flood-opacity="0" result="BackgroundImageFix"/><feColorMatrix in="SourceAlpha" result="hardAlpha" type="matrix" values="0 0 0 0 0 0 0 0 0 0 0 0 0 0 0 0 0 0 127 0"/><feOffset dy="2.524"/><feGaussianBlur stdDeviation="1.577"/><feColorMatrix type="matrix" values="0 0 0 0 0 0 0 0 0 0 0 0 0 0 0 0 0 0 0.25 0"/><feBlend in2="BackgroundImageFix" mode="normal" result="effect1_dropShadow_325_26279"/><feBlend in="SourceGraphic" in2="effect1_dropShadow_325_26279" mode="normal" result="shape"/></filter><filter id="filter1_d_325_26279" width="47.036" height="36.563" x="11.309" y="17.405" color-interpolation-filters="sRGB" filterUnits="userSpaceOnUse"><feFlood flood-opacity="0" result="BackgroundImageFix"/><feColorMatrix in="SourceAlpha" result="hardAlpha" type="matrix" values="0 0 0 0 0 0 0 0 0 0 0 0 0 0 0 0 0 0 127 0"/><feOffset dy="2.524"/><feGaussianBlur stdDeviation="1.577"/><feColorMatrix type="matrix" values="0 0 0 0 0 0 0 0 0 0 0 0 0 0 0 0 0 0 0.25 0"/><feBlend in2="BackgroundImageFix" mode="normal" result="effect1_dropShadow_325_26279"/><feBlend in="SourceGraphic" in2="effect1_dropShadow_325_26279" mode="normal" result="shape"/></filter><linearGradient id="paint0_linear_325_26279" x1="6.9" x2="58.682" y1="4.073" y2="59.346" gradientUnits="userSpaceOnUse"><stop offset=".479"/><stop offset="1" stop-color="#2C2C2C"/></linearGradient><clipPath id="clip0_325_26279"><rect width="40.727" height="30.255" fill="#fff" transform="translate(14.4634 18.0364)"/></clipPath><clipPath id="clip1_325_26279"><rect width="40.727" height="30.255" fill="#fff" transform="translate(14.4634 18.0364)"/></clipPath></defs></svg>