<svg xmlns="http://www.w3.org/2000/svg" width="14" height="16" fill="none" viewBox="0 0 14 16"><rect width=".547" height="9.774" y="2.624" fill="url(#paint0_linear_1_1002)" transform="rotate(-11.27 0 2.62354)"/><rect width=".547" height="10.503" x=".537" y="1.773" fill="url(#paint1_linear_1_1002)" transform="rotate(-11.27 0.537018 1.77283)"/><rect width=".547" height="11.962" x="1.432" y=".107" fill="url(#paint2_linear_1_1002)" transform="rotate(-11.27 1.43222 0.106934)"/><rect width=".547" height="10.977" x="2.304" y=".937" fill="url(#paint3_linear_1_1002)" transform="rotate(-11.27 2.3042 0.937134)"/><rect width=".547" height="9.008" x="3.869" y="2.633" fill="url(#paint4_linear_1_1002)" transform="rotate(-11.27 3.86935 2.6333)"/><rect width=".547" height="9.336" x="4.485" y="2.176" fill="url(#paint5_linear_1_1002)" transform="rotate(-11.27 4.48474 2.17615)"/><rect width="1.24" height="1.24" x="2.046" y="12.888" fill="url(#paint6_linear_1_1002)" transform="rotate(-11.27 2.04553 12.8883)"/><rect width="1.24" height="1.24" x="2.423" y="14.784" fill="url(#paint7_linear_1_1002)" transform="rotate(-11.27 2.42325 14.7841)"/><rect width="1.24" height="1.24" x="3.905" y="12.518" fill="url(#paint8_linear_1_1002)" transform="rotate(-11.27 3.90536 12.5177)"/><rect width="1.24" height="1.24" x="4.283" y="14.413" fill="url(#paint9_linear_1_1002)" transform="rotate(-11.27 4.28311 14.4132)"/><rect width="1.24" height="1.24" x="5.765" y="12.147" fill="url(#paint10_linear_1_1002)" transform="rotate(-11.27 5.76523 12.1471)"/><rect width="1.24" height="1.24" x="6.143" y="14.043" fill="url(#paint11_linear_1_1002)" transform="rotate(-11.27 6.14294 14.0426)"/><rect width="5.47" height="1.24" x="7.625" y="11.777" fill="url(#paint12_linear_1_1002)" transform="rotate(-11.27 7.62503 11.7765)"/><rect width="5.47" height="1.24" x="8.003" y="13.672" fill="url(#paint13_linear_1_1002)" transform="rotate(-11.27 8.00278 13.672)"/><defs><linearGradient id="paint0_linear_1_1002" x1=".274" x2=".274" y1="2.624" y2="12.397" gradientUnits="userSpaceOnUse"><stop stop-color="#F1652A"/><stop offset="1" stop-color="#F6B422"/></linearGradient><linearGradient id="paint1_linear_1_1002" x1=".811" x2=".811" y1="1.773" y2="12.276" gradientUnits="userSpaceOnUse"><stop stop-color="#F1662A"/><stop offset="1" stop-color="#F6B422"/></linearGradient><linearGradient id="paint2_linear_1_1002" x1="1.706" x2="1.706" y1=".107" y2="12.069" gradientUnits="userSpaceOnUse"><stop stop-color="#F1662A"/><stop offset="1" stop-color="#F6B422"/></linearGradient><linearGradient id="paint3_linear_1_1002" x1="2.578" x2="2.578" y1=".937" y2="11.914" gradientUnits="userSpaceOnUse"><stop stop-color="#F1662A"/><stop offset="1" stop-color="#F6B422"/></linearGradient><linearGradient id="paint4_linear_1_1002" x1="4.143" x2="4.143" y1="2.633" y2="11.641" gradientUnits="userSpaceOnUse"><stop stop-color="#F1662A"/><stop offset="1" stop-color="#F6B422"/></linearGradient><linearGradient id="paint5_linear_1_1002" x1="4.758" x2="4.758" y1="2.176" y2="11.512" gradientUnits="userSpaceOnUse"><stop stop-color="#F1662A"/><stop offset="1" stop-color="#F6B422"/></linearGradient><linearGradient id="paint6_linear_1_1002" x1="2.666" x2="2.666" y1="12.888" y2="14.128" gradientUnits="userSpaceOnUse"><stop stop-color="#F6BB21"/><stop offset="1" stop-color="#F6C320"/></linearGradient><linearGradient id="paint7_linear_1_1002" x1="3.043" x2="3.043" y1="14.784" y2="16.024" gradientUnits="userSpaceOnUse"><stop stop-color="#F6C921"/><stop offset="1" stop-color="#F7D31F"/></linearGradient><linearGradient id="paint8_linear_1_1002" x1="4.525" x2="4.525" y1="12.518" y2="13.758" gradientUnits="userSpaceOnUse"><stop stop-color="#F6BB21"/><stop offset="1" stop-color="#F6C320"/></linearGradient><linearGradient id="paint9_linear_1_1002" x1="4.903" x2="4.903" y1="14.413" y2="15.653" gradientUnits="userSpaceOnUse"><stop stop-color="#F6C921"/><stop offset="1" stop-color="#F7D31F"/></linearGradient><linearGradient id="paint10_linear_1_1002" x1="6.385" x2="6.385" y1="12.147" y2="13.387" gradientUnits="userSpaceOnUse"><stop stop-color="#F6BB21"/><stop offset="1" stop-color="#F6C320"/></linearGradient><linearGradient id="paint11_linear_1_1002" x1="6.763" x2="6.763" y1="14.043" y2="15.283" gradientUnits="userSpaceOnUse"><stop stop-color="#F6C921"/><stop offset="1" stop-color="#F7D31F"/></linearGradient><linearGradient id="paint12_linear_1_1002" x1="10.36" x2="10.36" y1="11.777" y2="13.016" gradientUnits="userSpaceOnUse"><stop stop-color="#F6BB21"/><stop offset="1" stop-color="#F6C320"/></linearGradient><linearGradient id="paint13_linear_1_1002" x1="10.738" x2="10.738" y1="13.672" y2="14.912" gradientUnits="userSpaceOnUse"><stop stop-color="#F6C921"/><stop offset="1" stop-color="#F7D31F"/></linearGradient></defs></svg>