<svg xmlns="http://www.w3.org/2000/svg" width="20" height="20" fill="none" viewBox="0 0 20 20"><rect width="10" height="12" x="5" y="4" fill="#000" opacity=".2"/><path fill="currentColor" fill-rule="evenodd" d="M15 16V4L5 4L5 16H15ZM17 4C17 2.89543 16.1046 2 15 2L5 2C3.89543 2 3 2.89543 3 4L3 16C3 17.1046 3.89543 18 5 18H15C16.1046 18 17 17.1046 17 16V4Z" clip-rule="evenodd"/><path fill="currentColor" d="M7 6H13V8H7V6Z"/><path fill="currentColor" d="M7 9H13V11H7V9Z"/><path fill="currentColor" d="M7 12H11V14H7V12Z"/></svg>